<svg width="15" height="18" viewBox="0 0 15 18" fill="none" xmlns="http://www.w3.org/2000/svg">
<path d="M11.6793 6.3V4.5C11.6793 1.98 9.70281 0 7.18726 0C4.67172 0 2.69522 1.98 2.69522 4.5V6.3C1.16793 6.3 0 7.47001 0 9.00001V15.3C0 16.83 1.16793 18 2.69522 18H11.6793C13.2066 18 14.3745 16.83 14.3745 15.3V9.00001C14.3745 7.47001 13.2066 6.3 11.6793 6.3ZM4.49204 4.5C4.49204 2.97 5.65997 1.8 7.18726 1.8C8.71456 1.8 9.88249 2.97 9.88249 4.5V6.3H4.49204V4.5ZM8.08567 13.5C8.08567 14.04 7.72631 14.4 7.18726 14.4C6.64822 14.4 6.28886 14.04 6.28886 13.5V10.8C6.28886 10.26 6.64822 9.90001 7.18726 9.90001C7.72631 9.90001 8.08567 10.26 8.08567 10.8V13.5Z" fill="#9A9A9A"/>
</svg>
