<svg width="18" height="18" viewBox="0 0 18 18" fill="none" xmlns="http://www.w3.org/2000/svg">
<path d="M-3.44897e-05 8.65313C-3.44897e-05 9.28321 0.51075 9.794 1.14084 9.794L13.8598 9.794L8.30361 15.36C7.85917 15.8053 7.85918 16.5263 8.30361 16.9715C8.74917 17.4178 9.47239 17.4178 9.91794 16.9715L17.8433 9.03213C18.0523 8.82271 18.0523 8.48355 17.8433 8.27413L9.91794 0.334763C9.47239 -0.111582 8.74917 -0.111582 8.30361 0.334761C7.85918 0.779988 7.85918 1.50101 8.30361 1.94623L13.8598 7.51226L1.14084 7.51226C0.51075 7.51226 -3.44897e-05 8.02304 -3.44897e-05 8.65313Z" fill="white"/>
</svg>
