<svg width="44" height="44" viewBox="0 0 44 44" fill="none" xmlns="http://www.w3.org/2000/svg">
<g filter="url(#filter0_d_477_2290)">
<path d="M22 35.8241C31.8926 35.8241 39.9121 27.8046 39.9121 17.912C39.9121 8.01949 31.8926 0 22 0C12.1075 0 4.08796 8.01949 4.08796 17.912C4.08796 27.8046 12.1075 35.8241 22 35.8241Z" fill="#E0E0E0"/>
</g>
<path d="M22 35.2796C31.7422 35.2796 39.6398 27.382 39.6398 17.6398C39.6398 7.89761 31.7422 0 22 0C12.2578 0 4.36017 7.89761 4.36017 17.6398C4.36017 27.382 12.2578 35.2796 22 35.2796Z" fill="white"/>
<mask id="mask0_477_2290" style="mask-type:luminance" maskUnits="userSpaceOnUse" x="10" y="5" width="24" height="25">
<path d="M33.4332 15.5709H22.2722V20.1987H28.6965C28.0976 23.1386 25.5932 24.8264 22.2722 24.8264C18.3522 24.8264 15.1945 21.6686 15.1945 17.7487C15.1945 13.8287 18.3522 10.671 22.2722 10.671C23.9599 10.671 25.4843 11.2699 26.6821 12.2499L30.1665 8.76544C28.0432 6.91435 25.321 5.77102 22.2722 5.77102C15.63 5.77102 10.2945 11.1065 10.2945 17.7487C10.2945 24.3908 15.63 29.7263 22.2722 29.7263C28.261 29.7263 33.7054 25.3708 33.7054 17.7487C33.7054 17.0409 33.5965 16.2787 33.4332 15.5709Z" fill="white"/>
</mask>
<g mask="url(#mask0_477_2290)">
<path d="M9.20564 24.8264V10.671L18.4611 17.7487L9.20564 24.8264Z" fill="#FBBC05"/>
</g>
<mask id="mask1_477_2290" style="mask-type:luminance" maskUnits="userSpaceOnUse" x="10" y="5" width="24" height="25">
<path d="M33.4332 15.5709H22.2722V20.1987H28.6965C28.0976 23.1386 25.5932 24.8264 22.2722 24.8264C18.3522 24.8264 15.1945 21.6686 15.1945 17.7487C15.1945 13.8287 18.3522 10.671 22.2722 10.671C23.9599 10.671 25.4843 11.2699 26.6821 12.2499L30.1665 8.76544C28.0432 6.91435 25.321 5.77102 22.2722 5.77102C15.63 5.77102 10.2945 11.1065 10.2945 17.7487C10.2945 24.3908 15.63 29.7263 22.2722 29.7263C28.261 29.7263 33.7054 25.3708 33.7054 17.7487C33.7054 17.0409 33.5965 16.2787 33.4332 15.5709Z" fill="white"/>
</mask>
<g mask="url(#mask1_477_2290)">
<path d="M9.20564 10.671L18.4611 17.7487L22.2722 14.4276L35.3387 12.3043V4.68214H9.20564V10.671Z" fill="#EA4335"/>
</g>
<mask id="mask2_477_2290" style="mask-type:luminance" maskUnits="userSpaceOnUse" x="10" y="5" width="24" height="25">
<path d="M33.4332 15.5709H22.2722V20.1987H28.6965C28.0976 23.1386 25.5932 24.8264 22.2722 24.8264C18.3522 24.8264 15.1945 21.6686 15.1945 17.7487C15.1945 13.8287 18.3522 10.671 22.2722 10.671C23.9599 10.671 25.4843 11.2699 26.6821 12.2499L30.1665 8.76544C28.0432 6.91435 25.321 5.77102 22.2722 5.77102C15.63 5.77102 10.2945 11.1065 10.2945 17.7487C10.2945 24.3908 15.63 29.7263 22.2722 29.7263C28.261 29.7263 33.7054 25.3708 33.7054 17.7487C33.7054 17.0409 33.5965 16.2787 33.4332 15.5709Z" fill="white"/>
</mask>
<g mask="url(#mask2_477_2290)">
<path d="M9.20564 24.8264L25.5388 12.3043L29.8399 12.8487L35.3387 4.68214V30.8152H9.20564V24.8264Z" fill="#34A853"/>
</g>
<mask id="mask3_477_2290" style="mask-type:luminance" maskUnits="userSpaceOnUse" x="10" y="5" width="24" height="25">
<path d="M33.4332 15.5709H22.2722V20.1987H28.6965C28.0976 23.1386 25.5932 24.8264 22.2722 24.8264C18.3522 24.8264 15.1945 21.6686 15.1945 17.7487C15.1945 13.8287 18.3522 10.671 22.2722 10.671C23.9599 10.671 25.4843 11.2699 26.6821 12.2499L30.1665 8.76544C28.0432 6.91435 25.321 5.77102 22.2722 5.77102C15.63 5.77102 10.2945 11.1065 10.2945 17.7487C10.2945 24.3908 15.63 29.7263 22.2722 29.7263C28.261 29.7263 33.7054 25.3708 33.7054 17.7487C33.7054 17.0409 33.5965 16.2787 33.4332 15.5709Z" fill="white"/>
</mask>
<g mask="url(#mask3_477_2290)">
<path d="M35.3387 30.8152L18.4611 17.7487L16.2833 16.1154L35.3387 10.671V30.8152Z" fill="#4285F4"/>
</g>
<defs>
<filter id="filter0_d_477_2290" x="0" y="0" width="44" height="44" filterUnits="userSpaceOnUse" color-interpolation-filters="sRGB">
<feFlood flood-opacity="0" result="BackgroundImageFix"/>
<feColorMatrix in="SourceAlpha" type="matrix" values="0 0 0 0 0 0 0 0 0 0 0 0 0 0 0 0 0 0 127 0" result="hardAlpha"/>
<feOffset dy="4"/>
<feGaussianBlur stdDeviation="2"/>
<feComposite in2="hardAlpha" operator="out"/>
<feColorMatrix type="matrix" values="0 0 0 0 0 0 0 0 0 0 0 0 0 0 0 0 0 0 0.25 0"/>
<feBlend mode="normal" in2="BackgroundImageFix" result="effect1_dropShadow_477_2290"/>
<feBlend mode="normal" in="SourceGraphic" in2="effect1_dropShadow_477_2290" result="shape"/>
</filter>
</defs>
</svg>
