<svg width="21" height="17" viewBox="0 0 21 17" fill="none" xmlns="http://www.w3.org/2000/svg">
<path d="M20.9185 2.01254C20.1352 2.3596 19.3042 2.58714 18.4534 2.68755C19.3497 2.15151 20.0206 1.30778 20.3408 0.313663C19.4983 0.813546 18.5766 1.16567 17.6155 1.35482C17.2138 0.926455 16.7284 0.585166 16.1894 0.352115C15.6504 0.119063 15.0693 -0.000784097 14.4821 3.86032e-06C12.1123 3.86032e-06 10.1904 1.92196 10.1904 4.29169C10.1904 4.62807 10.2285 4.95549 10.3021 5.26979C6.73534 5.09088 3.57283 3.3824 1.45595 0.785111C1.07423 1.4401 0.873622 2.18485 0.874724 2.94296C0.874724 4.43156 1.63295 5.74572 2.78388 6.51515C2.10231 6.49412 1.43574 6.30983 0.840157 5.97777L0.839837 6.03218C0.839837 8.11161 2.31979 9.84601 4.28272 10.24C3.91433 10.3405 3.53413 10.3912 3.15227 10.3908C2.8751 10.3908 2.60657 10.3642 2.34476 10.3143C2.89078 12.0189 4.4754 13.2598 6.35383 13.2947C4.83349 14.4879 2.95592 15.135 1.02323 15.1318C0.677567 15.1318 0.335103 15.1116 0 15.0716C1.96194 16.333 4.24574 17.0025 6.57819 17C14.4722 17 18.7891 10.4605 18.7891 4.78874C18.7891 4.60279 18.785 4.41747 18.7766 4.23376C19.6172 3.62684 20.3425 2.87461 20.9185 2.01254Z" fill="#F1F2F2"/>
</svg>
